<svg width="74" height="74" viewBox="0 0 74 74" fill="none" xmlns="http://www.w3.org/2000/svg">
<path d="M11.6619 51.417C11.4125 50.886 11.0433 50.42 10.5833 50.0555C10.1233 49.6911 9.58507 49.4381 9.01078 49.3164L8.68094 50.6145C9.07037 50.6966 9.43664 50.8643 9.75322 51.1054C10.0698 51.3464 10.3287 51.6548 10.5113 52.0081C10.6738 52.3309 10.7671 52.684 10.7853 53.0448C10.8035 53.4056 10.7462 53.7662 10.6171 54.1037C10.3662 54.7279 9.89628 55.2394 9.29528 55.5426C7.92565 56.2445 6.38481 55.7766 5.71258 54.4684C5.53349 54.1192 5.43654 53.7337 5.42912 53.3413C5.42171 52.949 5.50401 52.5601 5.66977 52.2044L4.32784 51.7893C3.87968 52.9616 4.00052 53.9628 4.56197 55.0596C4.79525 55.5317 5.12095 55.9522 5.51976 56.2963C5.91856 56.6404 6.3824 56.9011 6.88382 57.063C7.38523 57.2248 7.91403 57.2845 8.43895 57.2385C8.96386 57.1926 9.4742 57.0419 9.9398 56.7954C10.4166 56.5664 10.8416 56.2427 11.1889 55.844C11.5363 55.4453 11.7985 54.98 11.9597 54.4766C12.1209 53.9732 12.1776 53.4422 12.1264 52.9161C12.0752 52.39 11.9172 51.8799 11.6619 51.417Z" fill="#201E33"/>
<path d="M23.3004 65.1269L23.9248 71.8587L28.2729 65.0086L27.0946 64.4225L24.8614 68.0651L24.383 62.981L20.0349 65.6652L21.5984 61.6905L20.4277 61.1094L17.5625 68.6965L23.3004 65.1269Z" fill="#201E33"/>
<path d="M11.6823 63.9534C12.0922 64.2885 12.5658 64.5372 13.0744 64.6847C13.5831 64.8321 14.1163 64.8751 14.642 64.8112C15.1678 64.7472 15.6751 64.5777 16.1335 64.3127C16.5919 64.0477 16.9919 63.6927 17.3094 63.2692C17.6362 62.8541 17.8769 62.3781 18.0174 61.8689C18.1578 61.3598 18.1953 60.8278 18.1276 60.304C18.0598 59.7803 17.8882 59.2753 17.6228 58.8186C17.3574 58.3618 17.0035 57.9626 16.5818 57.6442C16.1682 57.3138 15.6927 57.0692 15.1833 56.9246C14.6739 56.7801 14.1407 56.7386 13.615 56.8026C13.0893 56.8666 12.5818 57.0347 12.1219 57.2971C11.6621 57.5595 11.2593 57.911 10.9371 58.331C10.6042 58.744 10.3588 59.2203 10.2156 59.731C10.0725 60.2416 10.0346 60.776 10.1042 61.3017C10.1739 61.8274 10.3497 62.3335 10.621 62.7893C10.8923 63.2451 11.2533 63.6412 11.6823 63.9534ZM15.7887 58.6706C16.0653 58.8864 16.2957 59.1554 16.4663 59.4618C16.6369 59.7681 16.7443 60.1055 16.7821 60.4541C16.8199 60.8026 16.7873 61.1552 16.6863 61.491C16.5853 61.8267 16.4179 62.1388 16.1941 62.4088C15.9874 62.6911 15.7263 62.9291 15.4261 63.109C15.1259 63.2888 14.7927 63.4068 14.4462 63.4561C14.0997 63.5053 13.7467 63.4847 13.4083 63.3956C13.0698 63.3065 12.7527 63.1506 12.4754 62.9371C12.1987 62.7217 11.9679 62.4533 11.7964 62.1476C11.625 61.8419 11.5164 61.5051 11.477 61.1569C11.4376 60.8087 11.4682 60.4561 11.567 60.1199C11.6658 59.7836 11.8309 59.4705 12.0524 59.1989C12.2599 58.9147 12.5223 58.675 12.824 58.4939C13.1258 58.3127 13.4608 58.1938 13.8092 58.1441C14.1577 58.0943 14.5126 58.1149 14.853 58.2044C15.1935 58.294 15.5124 58.4508 15.7912 58.6655L15.7887 58.6706Z" fill="#201E33"/>
<path d="M0.954485 44.9488L5.26985 47.0972L8.39936 43.0218L7.97891 41.4219L4.83932 45.5676L0.539062 43.369L0.954485 44.9488Z" fill="#201E33"/>
<path d="M2.10022 49.3261L9.53755 47.3765L9.19514 46.0684L5.26751 47.0973L1.75781 48.018L2.10022 49.3261Z" fill="#201E33"/>
<path d="M3.63755 36.4568C3.48433 36.1306 3.23465 35.8592 2.92219 35.6793C2.60974 35.4993 2.24954 35.4195 1.89024 35.4505C0.701881 35.4858 -0.0433622 36.4191 0.00195668 37.9788L0.0674197 40.1472L7.75401 39.9234L7.68602 37.6593C7.63819 35.9814 6.78217 35.0606 5.45281 35.1009C5.04404 35.0998 4.64596 35.2314 4.31855 35.476C3.99115 35.7205 3.75216 36.0647 3.63755 36.4568ZM1.17018 38.7561L1.14501 37.9058C1.12235 37.136 1.62588 36.7612 2.13949 36.7461C2.28326 36.7426 2.42623 36.7685 2.55965 36.8221C2.69308 36.8757 2.81419 36.9559 2.91552 37.0579C3.01686 37.1598 3.09629 37.2814 3.14901 37.415C3.20172 37.5487 3.22662 37.6918 3.22212 37.8354L3.24729 38.6957L1.17018 38.7561ZM6.52032 37.6794L6.54801 38.6001L4.37774 38.663L4.35005 37.7322C4.32488 36.8568 4.82589 36.4216 5.41 36.404C5.99411 36.3864 6.49514 36.8065 6.52032 37.6794Z" fill="#201E33"/>
<path d="M3.67947 30.4063L3.58631 30.7686L0.668293 30.029L0.335938 31.3396L7.79091 33.2289L8.21387 31.556C8.58398 30.0969 8.21387 28.7032 6.63274 28.3033C4.94839 27.8756 4.04705 28.9598 3.67947 30.4063ZM7.08342 31.2692L6.99279 31.6314L4.72685 31.0579L4.82 30.6956C5.0894 29.634 5.72636 29.3976 6.31551 29.546C6.90465 29.6944 7.35785 30.185 7.08342 31.2692Z" fill="#201E33"/>
<path d="M2.02127 24.671L1.69141 25.9707L9.14458 27.8592L9.47445 26.5596L2.02127 24.671Z" fill="#201E33"/>
<path d="M69.2767 37.9872L68.9922 41.894L65.757 41.6575L65.6562 43.0059L73.3051 43.5644L73.4033 42.216L70.2259 41.9845L70.5104 38.0752L73.6878 38.3092L73.7859 36.9583L66.1397 36.4023L66.0415 37.7507L69.2767 37.9872Z" fill="#201E33"/>
<path d="M49.9896 66.7378L46.3087 68.0887L45.1908 65.0448L43.9219 65.5102L46.563 72.7024L47.8344 72.237L46.7367 69.2484L50.4176 67.9001L51.5128 70.8886L52.7842 70.4207L50.1431 63.2285L48.8717 63.6964L49.9896 66.7378Z" fill="#201E33"/>
<path d="M69.9498 23.4043L71.4352 26.7627L72.5657 26.2646L70.5339 21.666L63.5195 24.7603L64.0684 25.9979L69.9498 23.4043Z" fill="#201E33"/>
<path d="M72.5738 33.8608L73.7974 33.6746L73.0144 28.5352L65.4336 29.6848L66.2166 34.8268L67.4276 34.6431L66.8485 30.8395L68.8678 30.5326L69.394 33.9891L70.5949 33.8079L70.0687 30.3489L71.9948 30.0571L72.5738 33.8608Z" fill="#201E33"/>
<path d="M59.0902 55.8786L58.2266 56.9176L64.1306 61.8055L67.1166 58.2056L63.9317 54.5705C63.667 54.236 63.4826 53.8453 63.3929 53.4284C63.3493 53.0929 63.41 52.7522 63.5666 52.4523L62.1945 51.9668C61.9968 52.3694 61.9 52.8141 61.9125 53.2624C61.9578 54.1026 62.4362 54.8925 62.9473 55.4837L65.4121 58.3414L64.05 59.9841L59.0902 55.8786Z" fill="#201E33"/>
<path d="M59.4788 66.5137L57.6459 57.709L56.5482 58.5618L56.946 60.4259L54.1765 62.5767L52.4594 61.739L51.3164 62.6271L59.4788 66.5137ZM57.2255 61.7516L57.7743 64.3377L55.39 63.1755L57.2255 61.7516Z" fill="#201E33"/>
<path d="M39.5165 74.0003L42.8752 65.666L41.4904 65.7666L40.7855 67.5276L37.2858 67.7791L36.3241 66.1314L34.8789 66.2371L39.5165 74.0003ZM40.2719 68.7879L39.2925 71.2457L37.9555 68.9565L40.2719 68.7879Z" fill="#201E33"/>
<path d="M63.0234 50.7419L70.1939 53.4588L72.5051 47.3634L65.3372 44.6465L64.8614 45.9018L70.8737 48.1784L69.5166 51.7557L63.5043 49.4765L63.0234 50.7419Z" fill="#201E33"/>
<path d="M16.4241 16.1575L17.3405 15.1613L11.5171 9.81055L11.4617 17.5688L7.80343 14.2079L6.89453 15.194L12.718 20.5448L12.7658 12.7941L16.4241 16.1575Z" fill="#201E33"/>
<path d="M44.358 8.62046L45.6874 8.86951L47.1401 1.09619L40.526 5.16649L41.44 0.283642L40.1207 0.0371094L38.668 7.80791L45.2694 3.73761L44.358 8.62046Z" fill="#201E33"/>
<path d="M18.0777 10.5008L21.3986 8.4153L23.1232 11.1599L24.2713 10.4404L20.1901 3.95508L19.0445 4.67455L20.739 7.3688L17.4206 9.45426L15.7237 6.76001L14.5781 7.47949L18.6593 13.9648L19.8049 13.2453L18.0777 10.5008Z" fill="#201E33"/>
<path d="M28.7632 9.05403C29.34 8.94265 29.8831 8.69906 30.3496 8.34243C30.8162 7.98579 31.1936 7.52584 31.4522 6.99875L30.2739 6.35978C30.0988 6.71704 29.8464 7.031 29.5351 7.27897C29.2238 7.52694 28.8613 7.70275 28.4737 7.79369C28.1206 7.87194 27.755 7.87566 27.4004 7.80462C27.0457 7.73358 26.7098 7.58934 26.4142 7.38113C25.8705 6.98586 25.4893 6.40645 25.3417 5.751C24.9967 4.24161 25.8276 2.87311 27.2627 2.54356C27.6436 2.45498 28.0398 2.45425 28.421 2.54142C28.8023 2.6286 29.1587 2.80139 29.4632 3.04669L30.1933 1.84924C29.1636 1.12725 28.164 0.998958 26.9706 1.27568C26.4557 1.38585 25.9682 1.59802 25.5367 1.89965C25.1053 2.20129 24.7387 2.58627 24.4587 3.03184C24.1787 3.47742 23.9909 3.97455 23.9065 4.49387C23.822 5.01319 23.8426 5.54415 23.967 6.05539C24.0728 6.57176 24.2826 7.06125 24.5836 7.49412C24.8846 7.92699 25.2705 8.29422 25.7179 8.57349C26.1653 8.85276 26.6648 9.03825 27.1861 9.1187C27.7075 9.19914 28.2398 9.17286 28.7507 9.04145" fill="#201E33"/>
<path d="M48.3945 9.95746L49.6257 10.5184L52.2894 4.68217L54.3817 5.6356L54.9003 4.50104L49.4847 2.0332L48.966 3.16776L51.0583 4.12118L48.3945 9.95746Z" fill="#201E33"/>
<path d="M34.5049 7.86137L35.8569 7.78087L35.4843 1.37857L37.7804 1.24524L37.7074 0L31.7656 0.347158L31.8361 1.58988L34.1323 1.45655L34.5049 7.86137Z" fill="#201E33"/>
<path d="M58.8477 17.487L59.7112 18.5285L64.651 14.433L66.1213 16.2015L67.0806 15.4066L63.2788 10.8281L62.3196 11.6256L63.7874 13.3916L58.8477 17.487Z" fill="#201E33"/>
<path d="M57.0898 10.8592L57.1829 9.93346L57.5027 6.25308L56.2312 5.30469L55.7503 11.4856L53.2578 12.6478L54.3958 13.4981L62.2989 9.83787L61.1383 8.96997L57.0898 10.8592Z" fill="#201E33"/>
<path d="M49.4248 24.9102H48.1055V49.088H49.4248V24.9102Z" fill="#201E33"/>
<path d="M37.5615 24.9102H36.2422V49.088H37.5615V24.9102Z" fill="#201E33"/>
<path d="M25.6904 24.9102H24.3711V49.088H25.6904V24.9102Z" fill="#201E33"/>
</svg>
