<svg version="1.1" fill='white' xmlns="http://www.w3.org/2000/svg" xmlns:xlink="http://www.w3.org/1999/xlink" x="0px" y="0px"
	 viewBox="0 0 100 100"  xml:space="preserve">
	<g>
		<path d="M23.9,20.06v46.91c0,5.31,3.42,9.05,10.02,9.05h6.15c4.71,0,7.76,1.64,10,3.85c2.23-2.21,5.26-3.85,10-3.85
			h6.15c6.6,0,10-3.74,10-9.05V20.06H23.9z M73.48,51.55H47.69V22.79h25.78V51.55z M26.64,22.79H45.4v29.29L27.38,70.21
			c-0.48-0.9-0.75-1.97-0.75-3.24V22.79z M66.22,73.29h-6.15c-3.92,0-7.22,0.98-10,3c-2.78-2.02-6.07-3-10-3h-6.15
			c-1.99,0-3.64-0.42-4.85-1.2L47.2,53.84h26.28v13.13C73.48,69.85,72.22,73.29,66.22,73.29z"/>
		<polygon points="38.92,44.76 38.92,38.05 36.72,42.42 35.2,42.42 32.99,38.05 32.99,44.76 30.74,44.76 30.74,33.25 
			32.96,33.25 35.96,39.48 38.96,33.25 41.17,33.25 41.17,44.76 	"/>
		<path d="M59.17,60.87l-1.46,4.19h2.86L59.17,60.87z M61.86,68.99l-0.68-2.04h-4.09l-0.7,2.04h-2.34l4.19-11.51H60
			l4.21,11.51H61.86z"/>
		<path d="M61.02,44.69l-4.04-6.03l3.72-5.48h2.68l-3.87,5.4l4.25,6.11H61.02z M54.72,33.17h2.25v11.51h-2.25V33.17z"/>
	</g>
</svg>

