<svg display="none" xmlns="http://www.w3.org/2000/svg">

  <!-- большие кнопки -->
  <!-- стрелка вправо, без обводки -->
  <symbol id="big-button-right-norounded" viewBox="0 0 66 66" >
      <g>
        <circle cx="33" cy="33" r="32.5" transform="rotate(-90 33 33)" fill="#inherit" stroke="none"/>
        <path d="M32.9985 24.0015L41.997 33L32.9985 41.9985" stroke="#inherit"/>
        <path d="M42 33L24 33" stroke="#inherit"/>
      </g>
  </symbol>

  <!-- стрелка вправо, с обводкой -->
  <symbol id="big-button-right-rounded" viewBox="0 0 66 66" >
      <g>
        <circle class="svg__round" cx="33" cy="33" r="32.5" transform="rotate(-90 33 33)" fill="#inherit" stroke="currentColor"/>
        <path d="M32.9985 24.0015L41.997 33L32.9985 41.9985" fill="none" stroke="#inherit"/>
        <path d="M42 33L24 33" stroke="#inherit" fill="none"/>
      </g>
  </symbol>
  
  <!-- стрелка вправо, с обводкой и заливкой -->
  <symbol id="big-button-right" viewBox="0 0 66 66" >
      <g>
        <circle cx="33" cy="33" r="32.5" transform="rotate(-90 33 33)" fill="#inherit" stroke="currentColor"/>
        <path d="M32.9985 24.0015L41.997 33L32.9985 41.9985" stroke="#inherit"/>
        <path d="M42 33L24 33" stroke="#inherit"/>
      </g>
  </symbol>

  <!-- крестик -->
  <symbol id="big-button-сross-norounded" width="66" height="66" viewBox="0 0 66 66" xmlns="http://www.w3.org/2000/svg">
      <g>
        <circle cx="33" cy="33" r="32.5" transform="rotate(-90 33 33)" fill="inherit" stroke="none"/>
        <path d="M24 24L32.9985 32.9985L24 41.997M42.0001 24L33.0016 32.9985L42.0001 41.997" stroke="inherit"/>
      </g>
  </symbol>

  <!-- маленькие кнопки -->
  <!-- стрелка вправо, с обводкой -->
  <symbol id="small-button-right-rounded" viewBox="0 0 28 28" >
    <g> 
      <circle cx="14" cy="14" r="13.5" fill="inherit" stroke="currentColor"/>
      <path d="M14.7974 9.10006L19.7472 14.0498L14.7974 18.9996" stroke="inherit"/>
      <path d="M18.999 14.0508L8 14.0508" stroke="inherit"/>
    </g>
  </symbol>

  <!-- стрелка влево, с обводкой -->
  <symbol id="small-button-left-rounded" viewBox="0 0 28 28" >
    <g> 
       <circle cx="14" cy="14" r="13.5" fill="inherit" stroke="inherit"/>
       <path d="M12.9497 9.10006L7.99998 14.0498L12.9497 18.9996" stroke="inherit"/>
       <path d="M8.74813 14.0508L19.7471 14.0508" stroke="inherit"/>
    </g>
  </symbol>

    <!-- стрелка вправо, с обводкой -->
  <symbol id="small-button-right-rounded" viewBox="0 0 28 28" >
    <g> 
       <circle cx="14" cy="14" r="13.5" fill="inherit" stroke="inherit"/>
      <path d="M14.7974 9.10006L19.7472 14.0498L14.7974 18.9996" stroke="inherit"/>
      <path d="M18.999 14.0508L8 14.0508" stroke="inherit"/>
    </g>
  </symbol>

<!-- крестик, с обводкой -->
  <symbol id="small-button-cross-rounded" viewBox="0 0 28 28" >
    <g >
      <circle cx="14" cy="14" r="13.5" fill="inherit" stroke="inherit"/>
      <path d="M10.3532 10.3541L18.5547 18.5557" stroke="inherit"/>
      <path d="M18.5648 10.3571L10.3633 18.5586" stroke="inherit"/>
    </g>
  </symbol>

<!-- стрелка вниз, с обводкой -->
  <symbol id="small-button-down-rounded" viewBox="0 0 28 28" >
    <g >
      <circle cx="14" cy="14" r="13.5" fill="inherit" stroke="currentColor"/>
      <path d="M18.8228 14.9224L13.873 19.8722L8.9233 14.9224" stroke="inherit"/>
      <path d="M13.873 19.124L13.873 8.125" stroke="inherit"/>
    </g>
  </symbol>

  <!-- стрелка вверх, с обводкой -->
  <symbol id="small-button-up-rounded" viewBox="0 0 28 28" >
    <g >
      <circle cx="14" cy="14" r="13.5" fill="inherit" stroke="currentColor"/>
      <path d="M18.8228 13.0756L13.873 8.1259L8.9233 13.0756" stroke="inherit"/>
      <path d="M13.873 8.87405L13.873 19.873" stroke="inherit"/>
    </g>
  </symbol>

  <!-- звезда -->
  <symbol id="star" viewBox="0 0 29 28" >
    <g >
      <g clip-path="url(#clip0_1_6417)">
      <path d="M1.49805 14C1.49805 6.54416 7.5422 0.5 14.998 0.5C22.4539 0.5 28.498 6.54416 28.498 14C28.498 21.4558 22.4539 27.5 14.998 27.5C7.5422 27.5 1.49805 21.4558 1.49805 14Z" fill="white" stroke="currentColor"/>
      <path d="M15.1092 16.8405L18.8858 19L17.8836 14.93L21.2203 12.1916L16.8264 11.8384L15.1092 8L13.3919 11.8384L8.99805 12.1916L12.3347 14.93L11.3325 19L15.1092 16.8405Z" stroke="currentColor"/>
      </g>
      <defs>
        <clipPath id="clip0_1_6417">
        <rect width="28" height="28" fill="white" transform="translate(0.998047)"/>
        </clipPath>
      </defs>
    </g>
  </symbol>

  <symbol id="circle-n-arrow" viewBox="0 0 40 40" >
    <g >
      <path d="M15.2305 15.2271L24.7748 15.2271L24.7748 24.7715" fill="none" stroke="inherit"/>
      <path d="M24.7725 15.2275L15.2266 24.7734" stroke="inherit"/>
    </g>
  </symbol>
  <!-- MAIN LOGO MOBILE -->
  <symbol id="main-logo-mobile"  viewBox="0 0 83 40" >
    <g>
      <path d="M46.5889 39.7857H49.4558C51.6062 39.7857 52.7529 38.7857 52.7529 37C52.7529 35.9286 52.1078 35.1428 51.1044 34.7857C51.8212 34.4285 52.4663 33.7857 52.4663 32.6428C52.4663 31.1428 51.2477 30.1429 49.3126 30.1429H46.5889V39.7857ZM12.2565 9.92857H13.9767V5.85714H18.9223V9.92857H20.6425V0.214289H18.9223V4.21428H13.9767V0.214289H12.2565V9.92857ZM2.00691 16.7857H6.66579V15.2143H0.286701V24.8571H2.00691V16.7857ZM8.81604 24.8571H15.4102V23.3571H10.5363V20.7857H14.9802V19.2857H10.5363V16.7857H15.3385V15.2857H8.81604V24.8571ZM29.8885 24.8571H31.6087V16.7857H36.411V24.9286H38.1312V15.2143H29.8885V24.8571ZM43.1485 15.2143L42.2167 21.2143C42.145 21.6428 41.93 22.2143 41.4999 22.6428C41.2133 23 40.7832 23.1428 40.4248 23.2857L41.0699 25C41.6433 24.8571 42.145 24.5714 42.5751 24.2143C43.2918 23.5 43.7218 22.4286 43.8652 21.4285L44.6536 16.7857H47.3056V24.9286H49.0258V15.2143H43.1485ZM0 39.7857H1.7202L2.15025 34.4285L5.44731 40H5.51899L8.88772 34.4285L9.38942 39.7857H11.1096L9.81951 29.6429L5.51899 36.8571L1.07512 29.6429L0 39.7857ZM12.9732 35C12.9732 37.7143 15.0518 39.9285 18.0622 39.9285C21.0008 39.9285 23.1511 37.6429 23.1511 34.9285C23.1511 32.2143 21.0725 29.9285 18.0622 29.9285C15.0518 29.9285 12.9732 32.2143 12.9732 35ZM21.2875 35C21.2875 36.8571 19.9257 38.4286 17.9905 38.4286C16.0552 38.4286 14.6934 36.8571 14.6934 35C14.6934 33.0714 16.0552 31.5714 17.9905 31.5714C19.9257 31.5 21.2875 33.0714 21.2875 35ZM38.9913 35.7857L43.9369 30.2143H41.8583L37.9878 34.7143L38.9913 35.7857ZM37.9878 34.7143L41.8583 39.7857H44.0086L39.3497 33.7142L37.9878 34.7143ZM37.9878 30.1429H36.2677V39.7857H37.9878V30.1429ZM48.3091 31.5714H49.3126C50.316 31.5714 50.8177 32.0714 50.8177 32.7857C50.8177 33.5 50.3876 34.1429 49.3842 34.1429H48.3091V31.5714ZM48.3091 38.3571V35.6428H49.4558C50.6027 35.6428 51.1761 36.2143 51.1761 37.0714C51.1761 37.8571 50.6027 38.4286 49.4558 38.4286H48.3091V38.3571ZM55.5483 39.7857H57.4118C59.8488 39.7857 60.9956 38.3571 60.9956 36.7143C60.9956 34.7143 59.5621 33.7142 57.4118 33.7142H57.1968V30.1429H55.4766V39.7857H55.5483ZM62.5724 39.7857H64.2926V30.1429H62.5724V39.7857ZM53.1113 22.5H58.7737L57.9852 21H53.5413L53.1113 22.5ZM55.7633 14.7143L50.8177 24.8571H52.5379L56.5517 16.7143L55.7633 14.7143ZM54.9749 16.5714L59.0604 24.8571H60.8523L55.6916 14.7143L54.9749 16.5714ZM23.0078 5.07143C23.0078 7.85716 25.2297 10.0714 28.025 10.0714C29.8168 10.0714 30.9637 9.42856 31.9672 8.35717L30.892 7.21429C30.462 7.64288 30.0319 7.99999 29.5302 8.21426C29.1001 8.42854 28.6701 8.5 28.0967 8.5C26.2331 8.5 24.7997 6.92857 24.7997 5.07143C24.7997 3.14286 26.2331 1.64286 28.0967 1.64286C28.5984 1.64286 29.1001 1.78571 29.5302 1.92857C30.0319 2.14286 30.3903 2.5 30.8203 2.92857L31.8955 1.64286C30.8203 0.571425 29.6736 0.142857 28.0967 0.142857C25.158 0.0714287 23.0078 2.35714 23.0078 5.07143ZM24.8713 35C24.8713 37.7857 27.0932 40 29.8885 40C31.6804 40 32.8273 39.3572 33.8306 38.2857L32.7556 37.2143C31.8955 37.9286 31.1787 38.4286 29.9602 38.4286C28.0967 38.4286 26.6631 36.8571 26.6631 35C26.6631 33.0714 28.0967 31.5714 29.9602 31.5714C31.107 31.5714 31.8955 32.0714 32.6839 32.7857L33.759 31.5714C32.7556 30.5714 31.7521 30.0714 29.9602 30.0714C27.0216 29.9285 24.8713 32.2143 24.8713 35ZM18.3488 24.8571H20.069V20.7857H25.0146V24.8571H26.7348V15.2143H25.0146V19.2143H20.069V15.2143H18.3488V24.8571ZM62.7158 24.8571H64.436V20.7857H69.3816V24.8571H71.1018V15.2143H69.3816V19.2143H64.436V15.2143H62.7158V24.8571ZM75.259 22.5H80.9213L80.1329 21H75.689L75.259 22.5ZM77.8393 14.7143L72.8937 24.8571H74.6139L78.6277 16.7143L77.8393 14.7143ZM77.0508 16.5714L81.208 24.8571H83L77.8393 14.7143L77.0508 16.5714ZM57.4118 35.2143C58.7737 35.2143 59.4187 35.7143 59.4187 36.7143C59.4187 37.7143 58.7737 38.2142 57.4118 38.2142H57.1968V35.1428H57.4118V35.2143ZM64.5794 9.92857H66.3712L71.6035 0.285718H69.74L64.5794 9.92857ZM67.2314 5.35714L64.006 0.214289H61.999L66.2996 6.78572L67.2314 5.35714ZM36.2677 9.92857H37.9878V1.78571H40.7832V0.214289H33.4723V1.78571H36.2677V9.92857ZM51.6778 0L44.4387 6.5V0.214289H42.7184V10.2143L50.0293 3.64286V9.92857H51.6778V0ZM75.7607 9.92857H77.4809V1.78571H80.2762V0.214289H72.8937V1.78571H75.7607V9.92857ZM56.3367 9.92857H58.0569V1.78571H60.8523V0.214289H53.5413V1.78571H56.4084V9.92857H56.3367ZM9.31774 0L2.00691 6.5V0.214289H0.286701V10.2143L7.66921 3.64286V9.92857H9.31774V0Z"/>
    </g>
  </symbol>

  <!-- лого ВК-->
  <symbol id="logo-vk" width="20" height="12" viewBox="0 0 20 12">
    <g>
      <path d="M19.1602 1.39844C19.2656 0.976562 19.1602 0.625 18.5273 0.625H16.4531C15.9258 0.625 15.6797 0.90625 15.5391 1.22266C15.5391 1.22266 14.4844 3.78906 13.0078 5.47656C12.5156 5.93359 12.3047 6.10938 12.0234 6.10938C11.918 6.10938 11.707 5.93359 11.707 5.51172V1.39844C11.707 0.871094 11.5664 0.625 11.1094 0.625H7.875C7.52344 0.625 7.34766 0.871094 7.34766 1.11719C7.34766 1.60938 8.08594 1.71484 8.15625 3.12109V6.17969C8.15625 6.84766 8.05078 6.98828 7.76953 6.98828C7.06641 6.98828 5.37891 4.38672 4.35938 1.43359C4.14844 0.871094 3.9375 0.625 3.41016 0.625H1.33594C0.773438 0.625 0.632812 0.90625 0.632812 1.22266C0.632812 1.78516 1.33594 4.49219 3.90234 8.11328C5.625 10.5742 8.05078 11.875 10.2305 11.875C11.5312 11.875 11.707 11.5938 11.707 11.1016C11.707 8.74609 11.6016 8.5 12.2344 8.5C12.5508 8.5 13.0781 8.67578 14.3086 9.87109C15.7148 11.2773 15.9609 11.875 16.7344 11.875H18.8086C19.4062 11.875 19.6875 11.5938 19.5117 10.9961C19.125 9.80078 16.4883 7.26953 16.3477 7.09375C16.0312 6.70703 16.1367 6.53125 16.3477 6.17969C16.3477 6.17969 18.8789 2.59375 19.1602 1.39844Z" fill="inherit"/> 
    </g>
  </symbol>

  <!-- лого телеграмм-->
  <symbol id="logo-telegramm" width="17" height="14" viewBox="0 0 17 14">
    <g>
      <path d="M16.6797 1.73047C16.8906 0.746094 16.3281 0.359375 15.6953 0.605469L1.70312 5.98438C0.753906 6.37109 0.789062 6.89844 1.5625 7.14453L5.11328 8.23438L13.4102 3.03125C13.7969 2.75 14.1836 2.92578 13.8672 3.17188L7.15234 9.21875L6.90625 12.9102C7.29297 12.9102 7.43359 12.7695 7.64453 12.5586L9.36719 10.8711L12.9883 13.543C13.6562 13.9297 14.1484 13.7188 14.3242 12.9453L16.6797 1.73047Z" fill="inherit"/>
    </g>
  </symbol>


</svg>


